<svg id="a23e4ba5-fce5-4acc-a652-1c93c4839f4e" data-name="Layer 1" xmlns="http://www.w3.org/2000/svg" width="100" height="100" viewBox="0 0 100 100"><title>100</title><path d="M84.08,18.48H16.32c-3.21,0-5.83,2.29-5.83,5.11v46.7H13V23.59c0-1.46,1.5-2.64,3.35-2.64H84.08c1.85,0,3.35,1.18,3.35,2.64v46.7h2.48V23.59C89.91,20.77,87.29,18.48,84.08,18.48Z" fill="#2c3439"/><path d="M93,69.21H87.48v2.5H93a2.17,2.17,0,0,1,2.17,2.16v3A2.17,2.17,0,0,1,93,79H7a2.17,2.17,0,0,1-2.17-2.16v-3A2.18,2.18,0,0,1,7,71.71l5.94-.1,0-2.5L7,69.21a4.67,4.67,0,0,0-4.67,4.66v3A4.67,4.67,0,0,0,7,81.52H93a4.67,4.67,0,0,0,4.67-4.66v-3A4.67,4.67,0,0,0,93,69.21Z" fill="#2c3439"/><circle cx="50" cy="25.42" r="2.03" fill="#f16333"/><path d="M84.92,71.17H15.55a1,1,0,0,1,0-2H84.92a1,1,0,1,1,0,2Z" fill="#f16333"/></svg>